<svg width="34" height="34" viewBox="0 0 34 34" fill="none" xmlns="http://www.w3.org/2000/svg">
<circle cx="16.7375" cy="16.7375" r="16.7375" fill="#F2F2F2"/>
<path d="M20.9764 11.7708H20.9848M12.1893 8.00488H20.558C22.869 8.00488 24.7424 9.87829 24.7424 12.1893V20.558C24.7424 22.869 22.869 24.7424 20.558 24.7424H12.1893C9.87829 24.7424 8.00488 22.869 8.00488 20.558V12.1893C8.00488 9.87829 9.87829 8.00488 12.1893 8.00488ZM19.7211 15.8464C19.8244 16.5429 19.7054 17.2542 19.3811 17.8792C19.0569 18.5041 18.5438 19.011 17.9148 19.3275C17.2859 19.6441 16.5732 19.7543 15.878 19.6424C15.1829 19.5305 14.5407 19.2023 14.0428 18.7045C13.5449 18.2066 13.2167 17.5644 13.1048 16.8692C12.993 16.1741 13.1032 15.4613 13.4197 14.8324C13.7363 14.2035 14.2431 13.6904 14.8681 13.3661C15.493 13.0418 16.2044 12.9228 16.9009 13.0261C17.6113 13.1315 18.269 13.4625 18.7769 13.9704C19.2847 14.4782 19.6158 15.136 19.7211 15.8464Z" stroke="black" stroke-width="1.5" stroke-linecap="round" stroke-linejoin="round"/>
</svg>
